<?xml version="1.0" encoding="UTF-8"?><svg id="Layer_1" xmlns="http://www.w3.org/2000/svg" viewBox="0 0 878.37 142.63"><defs><style>.cls-1{fill:#fff;}.cls-2{fill:#75cdd8;}</style></defs><g id="White"><path class="cls-1" d="M803.78,16.62c10.94-7.81,24.91-9.51,38.01-9.18,10.03,.58,20.86,2.48,28.38,9.72,7.29,7.05,8.85,17.92,7.98,27.59-10.03,1.14-20.61,.15-30.85,.49,1.1-11.96-14.09-12.65-21.95-8.96-4.87,2.12-5.59,10.2,.19,11.61,13.23,3.43,28.12,2.83,39.68,11.17,8.26,5.45,11.02,16.34,9.36,25.67-1.51,12.61-7.86,25-18.51,32.23-11.35,7.99-25.67,10.39-39.29,9.89-11.48-.4-24.1-3.21-31.87-12.35-6.65-7.72-7.74-18.48-6.62-28.22,11-.06,22-.05,33-.01-.43,4.62,.64,10.39,5.67,12.04,5.81,1.68,12.43,1.68,18.1-.56,4.97-1.77,6.65-10.14,1.16-12.29-11.54-4.76-25.03-2.75-36.04-9.16-7.56-3.98-12.66-12.06-13.08-20.59-1.09-14.59,4.36-30.48,16.68-39.09Z"/><path class="cls-1" d="M199.51,9.48c11.47-.06,22.95-.08,34.42,.01,.56,23.97,.23,47.96,.65,71.93,7.97-23.99,16.21-47.92,24.37-71.85,10.77-.02,21.71-.61,32.38,.3,.31,23.94,1.12,47.87,1.01,71.82,8.21-24.02,15.46-48.51,24.39-72.2,11.24-.1,22.49-.03,33.74-.04-14.72,38.26-30.51,76.24-45.83,114.31-11.96,.05-23.95,.29-35.9-.12-.45-20.97-2-41.94-1.6-62.92-7.43,20.94-14.82,41.91-22.49,62.77-11.9,.76-23.98,.21-35.95,.28-3.09-38.09-5.9-76.21-9.19-114.29Z"/><path class="cls-1" d="M365.77,9.54c11.18-.21,22.36-.05,33.54-.09-1.89,13.38-4.29,26.69-6.35,40.04,9.8-.14,19.61,.06,29.42-.1,2.19-13.27,4.37-26.56,6.4-39.86,11.18-.2,22.38-.04,33.57-.08-5.91,38.14-12.3,76.21-18.38,114.33-11.19,.12-22.4,.05-33.59,.04,1.88-13.96,5.17-27.77,6.23-41.81-9.57,.06-19.14-.01-28.71,.03-2.77,13.81-4.54,27.84-6.97,41.73-11.2,.15-22.4,.05-33.59,.05,6.11-38.1,12.38-76.18,18.43-114.28Z"/><path class="cls-1" d="M484.77,9.54c28.55-.22,57.12-.02,85.68-.1-.88,10.49-3.32,20.84-4.65,31.3-17.49,.28-34.98-.07-52.47,.17-.58,3.49-1.28,6.98-1.5,10.52,16.07,.06,32.14-.04,48.2,.05-1.6,9.95-3.2,19.9-4.84,29.85-15.98,1.3-32.47-.06-48.63,.67-.31,3.51-1.09,6.95-1.61,10.43,17.43,.05,34.86-.02,52.29,.03-1.39,10.32-3.28,20.59-4.89,30.88-28.44,1.14-57.38,.19-86.01,.48,6.1-38.1,12.38-76.18,18.43-114.28Z"/><path class="cls-1" d="M590.76,9.53c28.56-.21,57.12,0,85.68-.1-.87,10.5-3.31,20.85-4.64,31.31-17.49,.28-34.99-.07-52.47,.17-.58,3.5-1.28,6.98-1.5,10.52,16.07,.06,32.14-.04,48.2,.05-1.93,10-2.67,20.68-5.4,30.24-16.01,.38-32.06-.19-48.07,.28-.31,3.51-1.09,6.95-1.61,10.43,17.43,.05,34.86-.02,52.29,.03-1.39,10.32-3.28,20.6-4.89,30.9-28.46,1.1-57.38,.18-86.01,.46,6.1-38.1,12.38-76.17,18.42-114.29Z"/><path class="cls-1" d="M696.77,9.54c11.17-.22,22.36-.05,33.54-.09-4.24,27.69-8.85,55.33-13.35,82.98,14.83,.04,29.66,0,44.49,0-1.02,10.46-3.23,20.82-4.74,31.24-26.12,.35-52.25,.08-78.37,.14,6.11-38.1,12.38-76.17,18.43-114.28Z"/><path class="cls-1" d="M123.97,65.8c15.32-.82,30.82-.15,46.21-.33-1.34,9.27-2.67,18.59-4.57,27.76h-45.62c.33-8.97,2.73-18.33,3.98-27.43Z"/><path class="cls-2" d="M44.02,50.71c20.87-.11,21.54,.24,43.44,.07-2.8,9.97-4.85,17.62-8.34,28.16-20.83-.78-26.74,.17-44.19-.43,2.93-10.08,5.63-18.85,9.09-27.8Z"/><path class="cls-2" d="M27.47,99.05c24.04-.12,24.81,.28,50.03,.08-3.22,11.49-5.59,20.3-9.61,32.43-23.99-.9-30.8,.2-50.9-.5,3.37-11.61,6.48-21.71,10.47-32.02Z"/><path class="cls-2" d="M0,51.21C2.55,34.13,5.09,18.25,8.6,.03,42.45,.16,76.32-.12,110.16,.07c-2.86,10-6.26,19.91-9.04,29.9-24.14,.52-49.31,.17-73.46,.34-.3,3.4-.84,6.62-1.33,9.77,3.43,.12,7.86-.03,11.3,.01-1.81,4.44-3.53,9.13-4.87,13.65-9.84,29.63-19.91,59.18-29.51,88.89,2.02-30.57,8.15-60.86,11.02-91.38-4.75-.09-9.51,.07-14.27-.04Z"/></g></svg>